<svg viewBox="0 0 200 200" xmlns="http://www.w3.org/2000/svg">   <path fill="#FF6B9D" d="M37.1,-68.3C46.3,-59.1,50.5,-45.3,58.1,-33.2C65.8,-21,76.9,-10.5,81.2,2.5C85.5,15.5,83,31,73.9,40.6C64.8,50.3,49.1,54.1,35.7,59.7C22.3,65.4,11.2,72.8,0.2,72.4C-10.7,72.1,-21.4,63.9,-32.2,56.7C-42.9,49.5,-53.7,43.4,-63.9,34.1C-74.2,24.8,-83.8,12.4,-83.3,0.2C-82.9,-11.9,-72.5,-23.9,-63.1,-34.6C-53.7,-45.3,-45.4,-54.8,-35.1,-63.3C-24.7,-71.8,-12.4,-79.4,0.8,-80.8C14,-82.2,28,-77.5,37.1,-68.3Z" transform="translate(100 100)" /> </svg>

